<svg width="250" height="112" viewBox="0 0 250 112" fill="none" xmlns="http://www.w3.org/2000/svg">
<path d="M180.693 17.9768C180.282 20.4112 178.394 22.1862 176.495 23.5061C174.79 24.6912 172.925 25.7339 171.596 27.376C170.267 25.7339 168.402 24.6912 166.697 23.5061C164.798 22.1862 162.91 20.4112 162.499 17.9768C162.154 15.9378 163.033 13.7127 164.623 12.6042C166.212 11.4958 168.41 11.5736 169.932 12.7923C170.706 13.4121 171.28 14.3079 171.596 15.303C171.912 14.3079 172.486 13.412 173.26 12.7923C174.782 11.5736 176.98 11.4958 178.57 12.6042C180.158 13.7127 181.038 15.9378 180.693 17.9768Z" fill="#FF001F"/>
<path d="M230.223 71.4245C228.819 71.4245 227.381 71.0567 225.91 70.321C224.438 69.5854 223.067 68.4819 221.797 67.0106C220.526 65.4724 219.489 63.5999 218.687 61.393C217.884 59.1191 217.483 56.4775 217.483 53.4681C217.483 49.0542 218.052 45.4094 219.189 42.5337C220.325 39.5911 221.696 37.2504 223.301 35.5116C224.973 33.706 226.779 32.4353 228.718 31.6997C230.658 30.964 232.43 30.5962 234.035 30.5962C235.707 30.5962 237.078 30.8971 238.148 31.499C239.285 32.034 240.221 32.6694 240.957 33.405V31.499C241.358 31.1646 241.793 30.8637 242.261 30.5962C242.796 30.3287 243.331 30.1281 243.866 29.9943C244.401 29.7937 244.969 29.6934 245.571 29.6934H247.076C247.477 29.7602 247.879 29.8271 248.28 29.894C248.748 29.9609 249.082 30.1281 249.283 30.3956C248.882 39.1564 248.547 46.2454 248.28 51.6624C248.012 57.0794 247.812 61.2926 247.678 64.3021C247.477 67.8466 247.344 70.4213 247.277 72.0264C247.143 74.8352 246.775 77.6106 246.173 80.3525C245.571 83.1614 244.635 85.6692 243.364 87.8762C242.094 90.0831 240.422 91.8553 238.349 93.1929C236.276 94.5304 233.734 95.1992 230.725 95.1992C228.117 95.1992 226.01 94.6976 224.405 93.6944C222.867 92.6913 221.663 91.4541 220.794 89.9828C219.991 88.5115 219.456 86.9399 219.189 85.268C218.921 83.6629 218.787 82.1916 218.787 80.8541C218.787 80.5197 218.954 80.0181 219.289 79.3494C219.69 78.6806 220.225 77.9784 220.894 77.2428C221.63 76.574 222.532 75.9721 223.602 75.4371C224.672 74.9021 225.876 74.5677 227.214 74.4339C226.612 76.2396 226.244 77.8781 226.11 79.3494C225.977 80.1519 225.943 80.9544 226.01 81.7569C226.01 83.9639 226.445 85.803 227.314 87.2743C228.183 88.7456 229.521 89.4812 231.327 89.4812C233.266 89.4812 234.838 88.6452 236.041 86.9733C237.245 85.3683 238.148 83.3954 238.75 81.0547C239.419 78.7809 239.853 76.3734 240.054 73.832C240.322 71.3576 240.455 69.251 240.455 67.5122V64.603C240.054 65.3387 239.552 66.1078 238.951 66.9103C238.416 67.7128 237.747 68.4485 236.944 69.1172C236.142 69.786 235.172 70.321 234.035 70.7223C232.965 71.1904 231.694 71.4245 230.223 71.4245ZM234.336 36.3142C233.199 36.3142 232.096 36.8157 231.026 37.8189C230.023 38.822 229.12 40.1596 228.317 41.8315C227.515 43.4365 226.879 45.2757 226.411 47.3488C225.943 49.422 225.709 51.4952 225.709 53.5684C225.709 54.9059 225.776 56.2769 225.91 57.6813C226.11 59.0857 226.445 60.3898 226.913 61.5936C227.448 62.7305 228.117 63.6668 228.919 64.4024C229.722 65.1381 230.792 65.5059 232.129 65.5059C233.132 65.439 234.069 65.0377 234.938 64.3021C235.674 63.7002 236.409 62.7305 237.145 61.393C237.947 60.0554 238.583 58.1494 239.051 55.675C239.586 56.21 239.987 56.7116 240.255 57.1797C240.589 57.6479 240.857 58.0826 241.057 58.4838C241.124 57.9488 241.158 57.3135 241.158 56.5778C241.224 55.8422 241.258 55.0062 241.258 54.0699C241.258 52.2643 241.158 50.3248 240.957 48.2517C240.756 46.1116 240.388 44.1722 239.853 42.4334C239.385 40.6946 238.683 39.2567 237.747 38.1198C236.877 36.9161 235.741 36.3142 234.336 36.3142Z" fill="white"/>
<path d="M192.606 67.8131C192.539 68.2143 192.171 68.649 191.502 69.1172C190.9 69.5184 190.165 69.8862 189.295 70.2206C188.493 70.555 187.724 70.7556 186.988 70.8225C186.252 70.9563 185.751 70.8894 185.483 70.6219C185.216 70.3544 184.781 69.8528 184.179 69.1172C183.577 68.3815 183.21 67.1777 183.076 65.5058C182.942 63.767 182.875 61.5935 182.875 58.9853C182.875 56.3103 182.842 53.3677 182.775 50.1576V46.145C182.775 44.9412 182.741 43.5368 182.675 41.9317C182.675 40.3267 182.641 38.6548 182.574 36.916C183.176 36.5816 183.778 36.2807 184.38 36.0131C185.049 35.6788 185.651 35.4113 186.186 35.2106C186.787 34.9431 187.356 34.7425 187.891 34.6087C189.295 34.2075 190.365 33.9734 191.101 33.9065C191.837 33.8396 192.271 34.0737 192.405 34.6087C192.472 35.01 192.439 35.9797 192.305 37.5179C192.171 38.8554 192.004 40.8952 191.803 43.6371C191.603 46.3122 191.268 50.0573 190.8 54.8724C191.669 52.7323 192.372 50.8932 192.907 49.3551C193.509 47.8169 194.01 46.5797 194.411 45.6434C194.813 44.5065 195.18 43.6037 195.515 42.9349C195.849 42.0655 196.284 41.0958 196.819 40.0258C197.354 38.9557 197.889 37.9526 198.424 37.0163C199.026 36.08 199.561 35.2441 200.029 34.5084C200.564 33.7728 200.965 33.3381 201.233 33.2043C201.433 33.0706 202.035 33.0706 203.039 33.2043C204.042 33.3381 205.112 33.6725 206.249 34.2075C207.385 34.6756 208.489 35.3778 209.559 36.3141C210.629 37.1835 211.331 38.2535 211.666 39.5242C212.067 40.9955 212.201 42.9349 212.067 45.3425C212 47.75 211.833 50.2245 211.565 52.7658C211.365 55.3071 211.197 57.7147 211.064 59.9885C210.93 62.2623 211.064 64.0011 211.465 65.2049C211.599 65.8736 211.799 66.4755 212.067 67.0105C212.201 67.5456 212.368 68.0471 212.568 68.5153C212.836 68.9165 213.103 69.2175 213.371 69.4181C211.766 70.1537 210.462 70.6888 209.459 71.0231C208.456 71.3575 207.686 71.5916 207.151 71.7253C206.483 71.926 206.015 71.9929 205.747 71.926C205.145 71.7253 204.61 71.2238 204.142 70.4213C203.741 69.6187 203.373 68.3481 203.039 66.6093C202.905 66.0743 202.838 65.2049 202.838 64.0011C202.905 62.7304 203.005 61.326 203.139 59.7878C203.273 58.1828 203.406 56.5443 203.54 54.8724C203.741 53.1336 203.874 51.5286 203.941 50.0573C204.075 48.5191 204.175 47.215 204.242 46.145C204.309 45.0081 204.309 44.239 204.242 43.8377C203.908 42.6339 203.44 41.798 202.838 41.3298C202.236 40.7948 201.768 40.728 201.433 41.1292C200.564 42.1324 199.628 43.7709 198.625 46.0447C197.688 48.2516 196.786 50.6926 195.916 53.3677C195.047 55.9759 194.311 58.5841 193.709 61.1923C193.107 63.8005 192.739 66.0074 192.606 67.8131Z" fill="white"/>
<path d="M164.817 35.0099C164.817 34.6086 165.352 34.1739 166.422 33.7058C167.492 33.2377 168.663 32.8698 169.933 32.6023C171.271 32.2679 172.475 32.1007 173.545 32.1007C174.682 32.0339 175.25 32.2679 175.25 32.803C175.25 33.8061 175.183 35.244 175.05 37.1165C174.916 38.9222 174.749 40.8616 174.548 42.9348C174.347 44.9411 174.147 46.9808 173.946 49.054C173.745 51.0603 173.612 52.7657 173.545 54.1701C173.411 55.6414 173.277 57.2464 173.144 58.9852C173.01 60.4565 172.909 62.095 172.843 63.9007C172.776 65.7063 172.776 67.5454 172.843 69.418C172.843 69.7524 172.508 70.0868 171.839 70.4211C171.171 70.7555 170.435 70.9896 169.633 71.1234C168.83 71.324 168.061 71.4243 167.325 71.4243C166.59 71.4243 166.188 71.2905 166.121 71.023C165.988 70.7555 165.854 70.2874 165.72 69.6186C165.586 68.9499 165.453 68.0136 165.319 66.8098C165.185 65.5391 165.085 63.9341 165.018 61.9947C164.951 59.9884 164.985 57.5808 165.118 54.772C165.386 49.2212 165.419 44.9411 165.219 41.9316C165.018 38.8553 164.884 36.5481 164.817 35.0099Z" fill="white"/>
<path d="M158.397 6.82153C158.397 7.55717 158.33 8.99503 158.197 11.1351C158.063 13.2751 157.896 15.8499 157.695 18.8594C157.494 21.8688 157.294 25.1792 157.093 28.7906C156.893 32.4019 156.725 36.0801 156.592 39.8252C156.458 43.5703 156.324 47.0814 156.19 50.3583C156.123 53.5684 156.09 56.4441 156.09 58.9854C156.157 61.5267 156.291 63.6668 156.491 65.4056C156.692 67.0775 156.993 68.2144 157.394 68.8163L152.88 70.5217C152.546 70.6554 152.144 70.7223 151.676 70.7223C151.208 70.7223 150.706 70.5885 150.171 70.321C149.703 70.0535 149.302 69.5854 148.968 68.9166C148.633 68.2479 148.466 67.3116 148.466 66.1078C148.466 65.6397 148.466 65.0712 148.466 64.4024C148.533 63.6668 148.566 62.8308 148.566 61.8946C147.764 63.2321 146.894 64.5362 145.958 65.8069C145.022 67.0775 143.985 68.181 142.848 69.1173C141.778 70.0535 140.608 70.7892 139.337 71.3242C138.067 71.9261 136.729 72.227 135.325 72.227C133.987 72.227 132.683 71.9261 131.412 71.3242C130.142 70.7892 129.005 69.9532 128.002 68.8163C126.999 67.6794 126.163 66.2081 125.494 64.4024C124.892 62.5968 124.591 60.4233 124.591 57.882C124.591 53.2675 125.126 49.2549 126.196 45.8441C127.266 42.3665 128.604 39.4908 130.209 37.217C131.881 34.8763 133.653 33.1375 135.525 32.0006C137.465 30.7969 139.237 30.195 140.842 30.195C143.317 30.195 145.223 30.8637 146.56 32.2013C147.898 33.4719 148.867 34.8095 149.469 36.2139C149.536 34.2745 149.57 32.4688 149.57 30.7969C149.636 29.0581 149.67 27.5868 149.67 26.383C149.67 21.4341 149.57 17.0202 149.369 13.1414C149.168 9.26253 148.667 6.31995 147.864 4.31365C148.8 3.77864 149.636 3.37738 150.372 3.10987C151.175 2.84236 151.877 2.64173 152.479 2.50798C153.214 2.30735 153.85 2.20703 154.385 2.20703C155.856 2.20703 156.893 2.64173 157.494 3.51113C158.096 4.31365 158.397 5.41712 158.397 6.82153ZM148.867 53.3678C149.001 51.629 149.068 49.8233 149.068 47.9508C149.135 46.0113 149.202 44.0719 149.269 42.1325C148.8 42.8681 148.232 43.5034 147.563 44.0385C146.961 44.5735 146.293 44.7072 145.557 44.4397C145.824 42.4334 145.791 40.8953 145.457 39.8252C145.189 38.7552 144.788 37.9527 144.253 37.4177C143.651 36.8158 142.949 36.4814 142.146 36.4145C140.942 36.4145 139.739 37.0833 138.535 38.4208C137.398 39.7583 136.361 41.4303 135.425 43.4366C134.556 45.376 133.853 47.4826 133.318 49.7564C132.783 51.9634 132.516 54.0031 132.516 55.8757C132.516 59.6208 133.018 62.2289 134.021 63.7002C135.091 65.1715 136.228 65.9072 137.431 65.9072C138.435 65.9072 139.471 65.5059 140.541 64.7034C141.678 63.9009 142.748 62.8643 143.751 61.5936C144.821 60.323 145.791 58.9854 146.66 57.581C147.597 56.1097 148.332 54.7053 148.867 53.3678Z" fill="white"/>
<path d="M99.2114 67.8131C99.1446 68.2143 98.7767 68.649 98.108 69.1172C97.5061 69.5184 96.7704 69.8862 95.901 70.2206C95.0985 70.555 94.3294 70.7556 93.5938 70.8225C92.8582 70.9563 92.3566 70.8894 92.0891 70.6219C91.8216 70.3544 91.3869 69.8528 90.785 69.1172C90.1831 68.3815 89.8153 67.1777 89.6815 65.5058C89.5478 63.767 89.4809 61.5935 89.4809 58.9853C89.4809 56.3103 89.4474 53.3677 89.3806 50.1576V46.145C89.3806 44.9412 89.3471 43.5368 89.2802 41.9317C89.2802 40.3267 89.2468 38.6548 89.1799 36.916C89.7818 36.5816 90.3837 36.2807 90.9856 36.0131C91.6544 35.6788 92.2563 35.4113 92.7913 35.2106C93.3932 34.9431 93.9616 34.7425 94.4966 34.6087C95.901 34.2075 96.9711 33.9734 97.7067 33.9065C98.4424 33.8396 98.8771 34.0737 99.0108 34.6087C99.0777 35.01 99.0443 35.9797 98.9105 37.5179C98.7767 38.8554 98.6096 40.8952 98.4089 43.6371C98.2083 46.3122 97.8739 50.0573 97.4058 54.8724C98.2752 52.7323 98.9774 50.8932 99.5124 49.3551C100.114 47.8169 100.616 46.5797 101.017 45.6434C101.418 44.5065 101.786 43.6037 102.121 42.9349C102.455 42.0655 102.89 41.0958 103.425 40.0258C103.96 38.9557 104.495 37.9526 105.03 37.0163C105.632 36.08 106.167 35.2441 106.635 34.5084C107.17 33.7728 107.571 33.3381 107.839 33.2043C108.039 33.0706 108.641 33.0706 109.644 33.2043C110.647 33.3381 111.717 33.6725 112.854 34.2075C113.991 34.6756 115.095 35.3778 116.165 36.3141C117.235 37.1835 117.937 38.2535 118.271 39.5242C118.673 40.9955 118.806 42.9349 118.673 45.3425C118.606 47.75 118.439 50.2245 118.171 52.7658C117.97 55.3071 117.803 57.7147 117.669 59.9885C117.536 62.2623 117.669 64.0011 118.071 65.2049C118.204 65.8736 118.405 66.4755 118.673 67.0105C118.806 67.5456 118.974 68.0471 119.174 68.5153C119.442 68.9165 119.709 69.2175 119.977 69.4181C118.372 70.1537 117.068 70.6888 116.064 71.0231C115.061 71.3575 114.292 71.5916 113.757 71.7253C113.088 71.926 112.62 71.9929 112.353 71.926C111.751 71.7253 111.216 71.2238 110.748 70.4213C110.346 69.6187 109.979 68.3481 109.644 66.6093C109.51 66.0743 109.444 65.2049 109.444 64.0011C109.51 62.7304 109.611 61.326 109.745 59.7878C109.878 58.1828 110.012 56.5443 110.146 54.8724C110.346 53.1336 110.48 51.5286 110.547 50.0573C110.681 48.5191 110.781 47.215 110.848 46.145C110.915 45.0081 110.915 44.239 110.848 43.8377C110.514 42.6339 110.045 41.798 109.444 41.3298C108.842 40.7948 108.374 40.728 108.039 41.1292C107.17 42.1324 106.234 43.7709 105.23 46.0447C104.294 48.2516 103.391 50.6926 102.522 53.3677C101.652 55.9759 100.917 58.5841 100.315 61.1923C99.713 63.8005 99.3452 66.0074 99.2114 67.8131Z" fill="white"/>
<path d="M83.3622 53.2673C83.2284 55.8755 82.7603 58.2831 81.9578 60.49C81.2221 62.697 80.1855 64.6364 78.848 66.3083C77.5105 67.9134 75.9054 69.184 74.0329 70.1203C72.2272 71.0566 70.2209 71.5582 68.014 71.625C66.0745 71.6919 64.2354 71.2238 62.4966 70.2206C60.8247 69.2175 59.3534 67.8131 58.0828 66.0074C56.8121 64.2017 55.8424 62.0616 55.1736 59.5872C54.5717 57.0459 54.4045 54.3039 54.672 51.3614C54.8727 47.9506 55.508 45.0415 56.578 42.6339C57.6481 40.1595 58.785 38.1198 59.9887 36.5147C61.1925 34.9097 62.296 33.7393 63.2991 33.0037C64.3692 32.2012 65.0379 31.733 65.3055 31.5993C65.7736 31.3986 66.2083 31.3652 66.6095 31.499C67.0108 31.5658 67.4455 31.6661 67.9136 31.7999C68.0474 31.8668 68.1812 32.034 68.3149 32.3015C68.5824 32.7696 68.7496 33.639 68.8165 34.9097C69.1509 34.174 69.5856 33.5721 70.1206 33.104C70.6556 32.6359 71.1906 32.3015 71.7256 32.1008C72.3944 31.8333 73.0632 31.6661 73.7319 31.5993C74.2001 31.5324 75.0026 31.9002 76.1395 32.7027C77.3433 33.5053 78.4802 34.7759 79.5502 36.5147C80.6871 38.2535 81.6568 40.5273 82.4593 43.3361C83.2619 46.0781 83.5628 49.3885 83.3622 53.2673ZM76.5407 52.0636C76.6076 50.4585 76.5407 48.8535 76.3401 47.2484C76.2064 45.5765 75.9389 44.0718 75.5376 42.7343C75.2032 41.3298 74.7685 40.2264 74.2335 39.4239C73.6985 38.5545 73.1635 38.1198 72.6285 38.1198C72.0266 38.2535 71.3578 38.5545 70.6222 39.0226C70.0203 39.4239 69.3515 40.0592 68.6158 40.9286C67.8802 41.798 67.178 43.0352 66.5092 44.6402C66.4424 44.4396 66.3755 44.0718 66.3086 43.5368C66.2417 43.0686 66.1748 42.4667 66.108 41.7311C66.108 40.9286 66.1748 39.8586 66.3086 38.521C65.3723 39.6579 64.6367 40.9955 64.1017 42.5336C63.6335 44.0718 63.2657 45.5431 62.9982 46.9475C62.7307 48.6194 62.5301 50.2913 62.3963 51.9633C62.3294 53.7689 62.3963 55.5412 62.5969 57.28C62.8644 59.0188 63.2657 60.5569 63.8007 61.8945C64.4026 63.232 65.1048 64.302 65.9073 65.1045C66.7099 65.9071 67.6796 66.2749 68.8165 66.208C69.9534 66.1411 70.9565 65.673 71.8259 64.8036C72.6953 63.9342 73.4644 62.8307 74.1332 61.4932C74.8019 60.1557 75.337 58.6509 75.7382 56.979C76.1395 55.3071 76.407 53.6686 76.5407 52.0636Z" fill="white"/>
<path d="M7.62395 23.9753C6.68768 23.7078 5.71796 23.3066 4.71481 22.7715C3.77854 22.1697 2.90914 21.5009 2.10662 20.7652C1.37097 19.9627 0.802521 19.0933 0.401261 18.157C0 17.2208 -0.100315 16.2176 0.100315 15.1476C0.501576 12.9407 1.77223 10.8675 3.91229 8.92805C6.05235 6.98863 8.92805 5.45046 12.5394 4.31355V4.01261C12.6063 3.27696 13.0744 2.54132 13.9438 1.80567C14.8801 1.00315 16.017 0.468138 17.3545 0.20063C18.6252 -0.0668768 19.528 -0.0668768 20.063 0.20063C20.6649 0.468138 20.9659 0.83596 20.9659 1.3041C20.9659 1.43785 20.9324 1.60504 20.8655 1.80567C20.8655 1.93943 20.8655 2.07318 20.8655 2.20693V2.70851C24.1425 2.441 27.7873 2.54132 31.7999 3.00946C36.615 3.61135 40.5273 4.74825 43.5368 6.42017C46.5462 8.09209 48.82 10.0315 50.3582 12.2385C51.8964 14.3785 52.8326 16.6189 53.167 18.9596C53.5683 21.3003 53.5683 23.4403 53.167 25.3797C52.7658 27.6536 52.0301 29.7267 50.9601 31.5993C49.8901 33.405 48.6194 35.0434 47.1481 36.5147C45.6768 37.9191 44.0383 39.1564 42.2327 40.2264C40.427 41.2964 38.521 42.1993 36.5147 42.9349C38.6548 43.403 40.4604 44.1721 41.9317 45.2422C43.4699 46.2453 44.7071 47.4491 45.6434 48.8535C46.5797 50.2579 47.2484 51.8295 47.6497 53.5683C48.0509 55.3071 48.1847 57.0793 48.0509 58.885C47.9172 61.6938 47.1816 64.3355 45.844 66.8099C44.5734 69.2175 42.8346 71.3241 40.6276 73.1298C38.4207 74.9354 35.7791 76.3399 32.7027 77.343C29.6933 78.3462 26.3494 78.7809 22.6712 78.6471H21.4674C20.4643 79.5165 19.3608 80.1518 18.157 80.5531C17.0201 81.0212 15.9167 81.3556 14.8466 81.5563C13.6429 81.8238 12.4391 81.9241 11.2353 81.8572C11.2353 81.3891 11.2353 80.8875 11.2353 80.3525C11.3022 79.8843 11.3356 79.4162 11.3356 78.9481C11.3356 78.413 11.369 77.878 11.4359 77.343C10.6334 77.2093 9.86432 77.0086 9.12868 76.7411C8.45991 76.5405 7.7577 76.3064 7.02206 76.0389C6.35329 75.8383 5.7514 75.6042 5.21639 75.3367C4.94888 74.9354 4.74825 74.4339 4.6145 73.832C4.48074 73.297 4.38043 72.6951 4.31355 72.0263C4.31355 71.4244 4.4473 70.7222 4.71481 69.9197C6.78799 70.7222 9.16212 71.3241 11.8372 71.7254C11.9709 68.3146 12.0713 64.2686 12.1381 59.5872C12.2719 54.9058 12.3388 49.9904 12.3388 44.8409C12.3388 39.0226 12.3388 33.3046 12.3388 27.687C12.4056 22.0693 12.4391 17.2542 12.4391 13.2416C10.4997 14.2448 8.99492 15.6157 7.9249 17.3545C6.85487 19.0933 6.75455 21.3003 7.62395 23.9753ZM38.521 59.3866C38.7885 56.444 38.3538 54.1033 37.2169 52.3645C36.08 50.5589 34.5753 49.2213 32.7027 48.3519C30.8971 47.4156 28.8908 46.8472 26.6838 46.6466C24.5438 46.4459 22.6043 46.4125 20.8655 46.5462C20.9993 52.097 21.0996 57.1462 21.1665 61.6938C21.2334 66.1746 21.3002 69.8528 21.3671 72.7285C23.4403 72.7954 25.4466 72.5613 27.386 72.0263C29.3255 71.4913 31.0643 70.6553 32.6024 69.5184C34.2075 68.3815 35.545 66.9771 36.615 65.3052C37.6851 63.5664 38.3204 61.5935 38.521 59.3866ZM20.6649 10.9344C20.5312 14.3451 20.4643 18.3911 20.4643 23.0725C20.4643 27.7539 20.5312 32.9703 20.6649 38.7217C20.6649 39.2567 20.6649 39.7917 20.6649 40.3267C20.6649 40.7948 20.6984 41.2964 20.7652 41.8314C23.1728 41.6308 25.6807 41.0624 28.2889 40.1261C30.8971 39.1229 33.2712 37.8188 35.4112 36.2138C37.6182 34.6087 39.4238 32.7362 40.8283 30.5961C42.2327 28.3892 42.9349 25.9816 42.9349 23.3734C42.9349 21.3671 42.3999 19.5949 41.3298 18.0567C40.2598 16.4517 38.822 15.1142 37.0163 14.0441C35.2775 12.9741 33.2377 12.1716 30.8971 11.6366C28.6233 11.1015 26.2491 10.834 23.7747 10.834C23.2397 10.834 22.7047 10.834 22.1696 10.834C21.7015 10.834 21.1999 10.8675 20.6649 10.9344Z" fill="white"/>
<path d="M216.451 88.0481H3.66846C120.824 90.9436 168.606 95.5634 216.451 110.06" stroke="white" stroke-width="2.89632" stroke-linecap="round"/>
</svg>
