<svg width="25" height="26" viewBox="0 0 25 26" fill="none" xmlns="http://www.w3.org/2000/svg">
<path d="M0.786998 15.4679C0.534471 17.0746 1.66346 18.1899 3.04578 18.7456C8.3453 20.8765 15.7201 20.8765 21.0197 18.7456C22.402 18.1899 23.531 17.0746 23.2784 15.4679C23.1232 14.4805 22.3558 13.6583 21.7873 12.8554C21.0426 11.7908 20.9686 10.6297 20.9685 9.3943C20.9685 4.62019 16.9678 0.75 12.0327 0.75C7.09762 0.75 3.09693 4.62019 3.09693 9.3943C3.09682 10.6297 3.02282 11.7908 2.27812 12.8554C1.70958 13.6583 0.942192 14.4805 0.786998 15.4679Z" stroke="white" stroke-opacity="0.7" stroke-width="1.5" stroke-linecap="round" stroke-linejoin="round"/>
<path d="M8.47021 23.3125C9.41562 24.051 10.6641 24.5 12.0327 24.5C13.4013 24.5 14.6498 24.051 15.5952 23.3125" stroke="white" stroke-opacity="0.7" stroke-width="1.5" stroke-linecap="round" stroke-linejoin="round"/>
</svg>
