<svg width="29" height="29" viewBox="0 0 29 29" fill="none" xmlns="http://www.w3.org/2000/svg">
<path d="M14.393 15.1762C14.3098 15.1643 14.203 15.1643 14.108 15.1762C12.018 15.1049 10.3555 13.3949 10.3555 11.2931C10.3555 9.1437 12.0892 7.39807 14.2505 7.39807C16.3998 7.39807 18.1455 9.1437 18.1455 11.2931C18.1336 13.3949 16.483 15.1049 14.393 15.1762Z" stroke="white" stroke-opacity="0.7" stroke-width="1.5" stroke-linecap="round" stroke-linejoin="round"/>
<path d="M22.2536 23.0138C20.1398 24.9494 17.3373 26.125 14.2498 26.125C11.1623 26.125 8.35984 24.9494 6.24609 23.0138C6.36484 21.8975 7.07734 20.805 8.34797 19.95C11.6017 17.7888 16.9217 17.7888 20.1517 19.95C21.4223 20.805 22.1348 21.8975 22.2536 23.0138Z" stroke="white" stroke-opacity="0.7" stroke-width="1.5" stroke-linecap="round" stroke-linejoin="round"/>
<path d="M14.25 26.125C20.8084 26.125 26.125 20.8084 26.125 14.25C26.125 7.69162 20.8084 2.375 14.25 2.375C7.69162 2.375 2.375 7.69162 2.375 14.25C2.375 20.8084 7.69162 26.125 14.25 26.125Z" stroke="white" stroke-opacity="0.7" stroke-width="1.5" stroke-linecap="round" stroke-linejoin="round"/>
</svg>
