<svg width="36" height="36" viewBox="0 0 36 36" fill="none" xmlns="http://www.w3.org/2000/svg">
<path d="M36 18C36 8.05888 27.9411 0 18 0C8.05887 0 0 8.05888 0 18C0 27.9411 8.05887 36 18 36C27.9411 36 36 27.9411 36 18Z" fill="white" fill-opacity="0.1"/>
<path d="M12.4306 26.1516C13.2988 25.2198 14.6223 25.2939 15.3847 26.3104L16.4541 27.7398C17.3118 28.8727 18.6988 28.8727 19.5565 27.7398L20.6259 26.3104C21.3882 25.2939 22.7118 25.2198 23.58 26.1516C25.4647 28.1633 27 27.4963 27 24.6798V12.7469C27 8.47981 26.0047 7.4104 22.0024 7.4104H13.9976C9.99529 7.4104 9 8.47981 9 12.7469V24.6692C9.01059 27.4963 10.5565 28.1527 12.4306 26.1516Z" stroke="white" stroke-width="1.58823" stroke-linecap="round" stroke-linejoin="round"/>
<path d="M15.1006 15.881H20.9241" stroke="white" stroke-width="1.58823" stroke-linecap="round" stroke-linejoin="round"/>
</svg>
