<svg width="36" height="36" viewBox="0 0 36 36" fill="none" xmlns="http://www.w3.org/2000/svg">
<path d="M36 18C36 8.05888 27.9411 0 18 0C8.05887 0 0 8.05888 0 18C0 27.9411 8.05887 36 18 36C27.9411 36 36 27.9411 36 18Z" fill="white" fill-opacity="0.1"/>
<path d="M22.5008 20.1492H22.5098M25 10H12.2C11.0799 10 10.5198 10 10.092 10.218C9.71569 10.4097 9.40973 10.7157 9.21799 11.092C9 11.5198 9 12.0799 9 13.2V22.8C9 23.9201 9 24.4801 9.21799 24.908C9.40973 25.2843 9.71569 25.5902 10.092 25.782C10.5198 26 11.0799 26 12.2 26H23.8C24.9201 26 25.4802 26 25.908 25.782C26.2843 25.5902 26.5903 25.2843 26.782 24.908C27 24.4801 27 23.9201 27 22.8V17.2C27 16.0799 27 15.5198 26.782 15.092C26.5903 14.7157 26.2843 14.4097 25.908 14.218C25.4802 14 24.9201 14 23.8 14H13M22.9508 20.1492C22.9508 20.3977 22.7493 20.5992 22.5008 20.5992C22.2523 20.5992 22.0508 20.3977 22.0508 20.1492C22.0508 19.9007 22.2523 19.6992 22.5008 19.6992C22.7493 19.6992 22.9508 19.9007 22.9508 20.1492Z" stroke="white" stroke-width="2" stroke-linecap="round" stroke-linejoin="round"/>
</svg>
