<svg width="36" height="36" viewBox="0 0 36 36" fill="none" xmlns="http://www.w3.org/2000/svg">
<path d="M36 18C36 8.05888 27.9411 0 18 0C8.05887 0 0 8.05888 0 18C0 27.9411 8.05887 36 18 36C27.9411 36 36 27.9411 36 18Z" fill="white" fill-opacity="0.1"/>
<mask id="path-2-inside-1_1_1328" fill="white">
<path d="M15.8258 10.2085C15.1398 10.2085 14.4691 10.4121 13.8988 10.7934C13.3285 11.1747 12.8842 11.7167 12.6221 12.3507C12.3599 12.9847 12.2918 13.6822 12.4263 14.3549C12.5608 15.0277 12.8919 15.6454 13.3776 16.1299C13.8633 16.6143 14.4819 16.9438 15.155 17.0766C15.8281 17.2093 16.5254 17.1394 17.1587 16.8756C17.792 16.6118 18.3329 16.1661 18.7127 15.5948C19.0926 15.0235 19.2944 14.3524 19.2926 13.6663C19.2926 13.2115 19.2029 12.7611 19.0285 12.341C18.8542 11.9209 18.5987 11.5393 18.2767 11.2181C17.9546 10.8969 17.5724 10.6424 17.1518 10.4691C16.7313 10.2959 16.2807 10.2073 15.8258 10.2085ZM21.8882 17.1062C21.8349 17.1072 21.7835 17.1265 21.7426 17.1608C21.7018 17.1951 21.6739 17.2424 21.6637 17.2948L21.502 18.4354C21.2435 18.5449 20.9968 18.6803 20.7655 18.8396L19.6878 18.4085C19.6364 18.3998 19.5836 18.4062 19.5358 18.4269C19.4879 18.4476 19.4471 18.4818 19.4183 18.5252L18.5202 20.0161C18.494 20.0612 18.485 20.1142 18.4949 20.1654C18.5048 20.2166 18.533 20.2625 18.5741 20.2945L19.4722 21.0041C19.4341 21.3022 19.4341 21.604 19.4722 21.9022L18.5741 22.6117C18.5336 22.6422 18.5058 22.6865 18.4959 22.7362C18.4859 22.7859 18.4946 22.8375 18.5202 22.8812L19.4183 24.381C19.4722 24.4978 19.589 24.4978 19.6878 24.4978L20.7655 24.0577C20.9932 24.225 21.2406 24.3637 21.502 24.4709L21.6637 25.6115C21.6724 25.6638 21.7002 25.7111 21.7416 25.7442C21.783 25.7773 21.8352 25.794 21.8882 25.7911H23.6216C23.6715 25.7897 23.7194 25.7711 23.7571 25.7383C23.7947 25.7055 23.8199 25.6607 23.8282 25.6115L23.9898 24.4709C24.2447 24.3561 24.4882 24.2178 24.7173 24.0577L25.7861 24.4978C25.8939 24.4978 26.0106 24.4978 26.0735 24.381L26.9716 22.8812C26.9973 22.8375 27.0059 22.7859 26.996 22.7362C26.9861 22.6865 26.9582 22.6422 26.9177 22.6117L26.0196 21.9022C26.0286 21.7556 26.0286 21.6087 26.0196 21.4621C26.0326 21.3187 26.0326 21.1744 26.0196 21.031L26.9177 20.3215C26.9574 20.2884 26.9844 20.2426 26.9942 20.1919C27.004 20.1411 26.9961 20.0886 26.9716 20.0431L26.0735 18.5522C26.0196 18.4354 25.9029 18.4354 25.7951 18.4354L24.7173 18.9024C24.4882 18.7399 24.2411 18.6042 23.9809 18.4983L23.8192 17.3576C23.8149 17.3075 23.7924 17.2607 23.756 17.226C23.7196 17.1913 23.6719 17.171 23.6216 17.169H21.987M15.9246 18.9024C12.0986 18.9024 9 20.4293 9 22.3423V24.0667H17.3796C17.0015 23.2679 16.8054 22.3952 16.8054 21.5115C16.8054 20.6278 17.0015 19.7551 17.3796 18.9563C16.8961 18.9094 16.4102 18.8914 15.9246 18.9024ZM22.7504 20.1868C22.9299 20.1718 23.1106 20.1943 23.281 20.2527C23.4513 20.3111 23.6077 20.4043 23.7403 20.5263C23.8728 20.6482 23.9786 20.7964 24.051 20.9613C24.1234 21.1263 24.1608 21.3044 24.1608 21.4846C24.1608 21.6647 24.1234 21.8429 24.051 22.0078C23.9786 22.1728 23.8728 22.3209 23.7403 22.4429C23.6077 22.5648 23.4513 22.658 23.281 22.7164C23.1106 22.7749 22.9299 22.7973 22.7504 22.7824C22.4249 22.7553 22.1214 22.6068 21.9002 22.3664C21.679 22.126 21.5562 21.8112 21.5562 21.4846C21.5562 21.1579 21.679 20.8431 21.9002 20.6027C22.1214 20.3623 22.4249 20.2139 22.7504 20.1868Z"/>
</mask>
<path d="M15.8258 10.2085L15.8258 10.9629L15.8278 10.9629L15.8258 10.2085ZM19.2926 13.6663L18.5382 13.6663L18.5382 13.6683L19.2926 13.6663ZM21.6637 17.2948L20.9233 17.1498L20.9195 17.1693L20.9167 17.1889L21.6637 17.2948ZM21.502 18.4354L21.7963 19.1301L22.1891 18.9637L22.249 18.5413L21.502 18.4354ZM20.7655 18.8396L20.4854 19.54L20.8606 19.6901L21.1934 19.4609L20.7655 18.8396ZM19.6878 18.4085L19.968 17.708L19.893 17.678L19.8135 17.6646L19.6878 18.4085ZM19.4183 18.5252L18.7896 18.1083L18.7806 18.1219L18.7721 18.1359L19.4183 18.5252ZM18.5202 20.0161L17.8739 19.6268L17.868 19.6369L18.5202 20.0161ZM18.5741 20.2945L19.0418 19.7025L19.0377 19.6993L18.5741 20.2945ZM19.4722 21.0041L20.2206 21.0998L20.2747 20.6766L19.9399 20.4121L19.4722 21.0041ZM19.4722 21.9022L19.9399 22.4942L20.2747 22.2297L20.2206 21.8065L19.4722 21.9022ZM18.5741 22.6117L19.0281 23.2142L19.035 23.209L19.0418 23.2037L18.5741 22.6117ZM18.5202 22.8812L17.8693 23.2627L17.8729 23.2687L18.5202 22.8812ZM19.4183 24.381L20.1033 24.0649L20.0864 24.0282L20.0656 23.9935L19.4183 24.381ZM19.6878 24.4978V25.2522H19.8359L19.973 25.1962L19.6878 24.4978ZM20.7655 24.0577L21.2122 23.4497L20.8716 23.1995L20.4803 23.3593L20.7655 24.0577ZM21.502 24.4709L22.249 24.365L22.1883 23.9367L21.788 23.7727L21.502 24.4709ZM21.6637 25.6115L20.9167 25.7174L20.918 25.7267L20.9196 25.7361L21.6637 25.6115ZM21.8882 25.7911V25.0367H21.8673L21.8464 25.0378L21.8882 25.7911ZM23.6216 25.7911V26.5455H23.6321L23.6425 26.5453L23.6216 25.7911ZM23.8282 25.6115L24.5721 25.7369L24.5737 25.7272L24.5751 25.7174L23.8282 25.6115ZM23.9898 24.4709L23.68 23.783L23.3012 23.9536L23.2429 24.365L23.9898 24.4709ZM24.7173 24.0577L25.0046 23.3601L24.6233 23.2031L24.2853 23.4392L24.7173 24.0577ZM25.7861 24.4978L25.4989 25.1954L25.6369 25.2522H25.7861V24.4978ZM26.0735 24.381L25.4262 23.9935L25.4174 24.0082L25.4093 24.0234L26.0735 24.381ZM26.9716 22.8812L27.6189 23.2688L27.6225 23.2627L26.9716 22.8812ZM26.9177 22.6117L26.4501 23.2037L26.4568 23.209L26.4637 23.2142L26.9177 22.6117ZM26.0196 21.9022L25.2666 21.856L25.2424 22.2497L25.5519 22.4942L26.0196 21.9022ZM26.0196 21.4621L25.2682 21.3943L25.2631 21.4512L25.2666 21.5083L26.0196 21.4621ZM26.0196 21.031L25.5519 20.439L25.2315 20.6921L25.2682 21.0988L26.0196 21.031ZM26.9177 20.3215L27.3854 20.9135L27.3936 20.907L27.4015 20.9004L26.9177 20.3215ZM26.9716 20.0431L27.6365 19.6865L27.6276 19.6699L27.6179 19.6538L26.9716 20.0431ZM26.0735 18.5522L25.3885 18.8683L25.4059 18.9059L25.4273 18.9415L26.0735 18.5522ZM25.7951 18.4354V17.681H25.6387L25.4951 17.7432L25.7951 18.4354ZM24.7173 18.9024L24.2808 19.5177L24.6274 19.7636L25.0173 19.5947L24.7173 18.9024ZM23.9809 18.4983L23.2339 18.6041L23.2947 19.0334L23.6963 19.197L23.9809 18.4983ZM23.8192 17.3576L23.0676 17.4226L23.0693 17.4431L23.0722 17.4635L23.8192 17.3576ZM23.6216 17.169L23.6516 16.4152L23.6366 16.4146H23.6216V17.169ZM15.9246 18.9024V19.6569H15.9332L15.9418 19.6567L15.9246 18.9024ZM9 24.0667H8.24557V24.8211H9V24.0667ZM17.3796 24.0667V24.8211H18.5713L18.0615 23.7439L17.3796 24.0667ZM17.3796 18.9563L18.0615 19.2791L18.5206 18.3092L17.4525 18.2054L17.3796 18.9563ZM22.7504 20.1868L22.6878 19.4349L22.7504 20.1868ZM22.7504 22.7824L22.6878 23.5342L22.7504 22.7824ZM15.8258 10.2085L15.8258 9.45408C14.9905 9.45408 14.1739 9.70193 13.4795 10.1662L13.8988 10.7934L14.3182 11.4205C14.7644 11.1222 15.2891 10.9629 15.8258 10.9629L15.8258 10.2085ZM13.8988 10.7934L13.4795 10.1662C12.7851 10.6306 12.244 11.2905 11.9249 12.0624L12.6221 12.3507L13.3193 12.639C13.5243 12.1429 13.872 11.7189 14.3182 11.4205L13.8988 10.7934ZM12.6221 12.3507L11.9249 12.0624C11.6057 12.8344 11.5227 13.6837 11.6865 14.5029L12.4263 14.3549L13.1661 14.207C13.0609 13.6807 13.1142 13.135 13.3193 12.639L12.6221 12.3507ZM12.4263 14.3549L11.6865 14.5029C11.8503 15.322 12.2534 16.0741 12.8448 16.664L13.3776 16.1299L13.9104 15.5957C13.5303 15.2167 13.2713 14.7334 13.1661 14.207L12.4263 14.3549ZM13.3776 16.1299L12.8448 16.664C13.4363 17.2539 14.1895 17.6551 15.009 17.8167L15.155 17.0766L15.301 16.3364C14.7744 16.2325 14.2904 15.9748 13.9104 15.5957L13.3776 16.1299ZM15.155 17.0766L15.009 17.8167C15.8286 17.9784 16.6777 17.8932 17.4488 17.5721L17.1587 16.8756L16.8687 16.1792C16.3732 16.3855 15.8276 16.4403 15.301 16.3364L15.155 17.0766ZM17.1587 16.8756L17.4488 17.5721C18.2199 17.2509 18.8784 16.7081 19.3409 16.0125L18.7127 15.5948L18.0845 15.1771C17.7873 15.6241 17.3642 15.9728 16.8687 16.1792L17.1587 16.8756ZM18.7127 15.5948L19.3409 16.0125C19.8035 15.3169 20.0492 14.4997 20.047 13.6644L19.2926 13.6663L18.5382 13.6683C18.5396 14.205 18.3817 14.7301 18.0845 15.1771L18.7127 15.5948ZM19.2926 13.6663L20.047 13.6663C20.047 13.1122 19.9377 12.5636 19.7254 12.0518L19.0285 12.341L18.3317 12.6302C18.468 12.9586 18.5382 13.3107 18.5382 13.6663L19.2926 13.6663ZM19.0285 12.341L19.7254 12.0518C19.513 11.5401 19.2017 11.0752 18.8094 10.6839L18.2767 11.2181L17.7439 11.7523C17.9957 12.0034 18.1954 12.3017 18.3317 12.6302L19.0285 12.341ZM18.2767 11.2181L18.8094 10.6839C18.4171 10.2927 17.9515 9.98261 17.4392 9.77157L17.1518 10.4691L16.8645 11.1667C17.1933 11.3021 17.4921 11.5011 17.7439 11.7523L18.2767 11.2181ZM17.1518 10.4691L17.4392 9.77157C16.9268 9.56053 16.3779 9.45264 15.8238 9.45408L15.8258 10.2085L15.8278 10.9629C16.1834 10.962 16.5357 11.0313 16.8645 11.1667L17.1518 10.4691ZM21.8882 17.1062L21.8732 16.3519C21.6476 16.3564 21.4302 16.438 21.2574 16.5832L21.7426 17.1608L22.2279 17.7385C22.1368 17.8151 22.0222 17.8581 21.9032 17.8605L21.8882 17.1062ZM21.7426 17.1608L21.2574 16.5832C21.0846 16.7283 20.9667 16.9283 20.9233 17.1498L21.6637 17.2948L22.4041 17.4397C22.3812 17.5565 22.319 17.662 22.2279 17.7385L21.7426 17.1608ZM21.6637 17.2948L20.9167 17.1889L20.755 18.3295L21.502 18.4354L22.249 18.5413L22.4106 17.4006L21.6637 17.2948ZM21.502 18.4354L21.2077 17.7407C20.9023 17.8701 20.6108 18.0301 20.3376 18.2182L20.7655 18.8396L21.1934 19.4609C21.3827 19.3306 21.5847 19.2197 21.7963 19.1301L21.502 18.4354ZM20.7655 18.8396L21.0457 18.1391L19.968 17.708L19.6878 18.4085L19.4076 19.1089L20.4854 19.54L20.7655 18.8396ZM19.6878 18.4085L19.8135 17.6646C19.6182 17.6316 19.4175 17.6559 19.2358 17.7347L19.5358 18.4269L19.8357 19.1191C19.7496 19.1564 19.6546 19.168 19.5621 19.1523L19.6878 18.4085ZM19.5358 18.4269L19.2358 17.7347C19.0541 17.8134 18.8991 17.9432 18.7896 18.1083L19.4183 18.5252L20.0471 18.9422C19.9952 19.0204 19.9218 19.0818 19.8357 19.1191L19.5358 18.4269ZM19.4183 18.5252L18.7721 18.1359L17.874 19.6268L18.5202 20.0161L19.1664 20.4054L20.0646 18.9145L19.4183 18.5252ZM18.5202 20.0161L17.868 19.6369C17.7501 19.8397 17.7096 20.0784 17.7542 20.3088L18.4949 20.1654L19.2356 20.0221C19.2604 20.1501 19.2379 20.2827 19.1724 20.3954L18.5202 20.0161ZM18.4949 20.1654L17.7542 20.3088C17.7988 20.5392 17.9254 20.7456 18.1105 20.8897L18.5741 20.2945L19.0377 19.6993C19.1405 19.7794 19.2108 19.8941 19.2356 20.0221L18.4949 20.1654ZM18.5741 20.2945L18.1064 20.8865L19.0046 21.5961L19.4722 21.0041L19.9399 20.4121L19.0418 19.7025L18.5741 20.2945ZM19.4722 21.0041L18.7239 20.9083C18.6776 21.2701 18.6776 21.6362 18.7239 21.9979L19.4722 21.9022L20.2206 21.8065C20.1905 21.5719 20.1905 21.3344 20.2206 21.0998L19.4722 21.0041ZM19.4722 21.9022L19.0046 21.3102L18.1064 22.0197L18.5741 22.6117L19.0418 23.2037L19.9399 22.4942L19.4722 21.9022ZM18.5741 22.6117L18.1201 22.0092C17.9318 22.1511 17.8023 22.3571 17.7561 22.5882L18.4959 22.7362L19.2356 22.8841C19.2093 23.0159 19.1354 23.1334 19.0281 23.2142L18.5741 22.6117ZM18.4959 22.7362L17.7561 22.5882C17.7099 22.8193 17.7502 23.0594 17.8694 23.2627L18.5202 22.8812L19.1711 22.4996C19.239 22.6155 19.262 22.7524 19.2356 22.8841L18.4959 22.7362ZM18.5202 22.8812L17.8729 23.2687L18.7711 24.7686L19.4183 24.381L20.0656 23.9935L19.1675 22.4936L18.5202 22.8812ZM19.4183 24.381L18.7333 24.6972C18.8642 24.9807 19.0962 25.1383 19.3179 25.2054C19.4918 25.2579 19.6613 25.2522 19.6878 25.2522V24.4978V23.7434C19.6588 23.7434 19.6597 23.7431 19.665 23.7434C19.6721 23.7439 19.7066 23.7466 19.7545 23.7611C19.8054 23.7764 19.876 23.8066 19.947 23.8646C20.0202 23.9245 20.0715 23.996 20.1033 24.0649L19.4183 24.381ZM19.6878 24.4978L19.973 25.1962L21.0507 24.7562L20.7655 24.0577L20.4803 23.3593L19.4026 23.7994L19.6878 24.4978ZM20.7655 24.0577L20.3189 24.6657C20.5962 24.8695 20.8975 25.0385 21.216 25.169L21.502 24.4709L21.788 23.7727C21.5836 23.689 21.3902 23.5805 21.2122 23.4497L20.7655 24.0577ZM21.502 24.4709L20.755 24.5767L20.9167 25.7174L21.6637 25.6115L22.4106 25.5056L22.249 24.365L21.502 24.4709ZM21.6637 25.6115L20.9196 25.7361C20.959 25.9715 21.0839 26.1842 21.2703 26.3333L21.7416 25.7442L22.2129 25.1551C22.3165 25.2379 22.3858 25.3561 22.4077 25.4869L21.6637 25.6115ZM21.7416 25.7442L21.2703 26.3333C21.4567 26.4825 21.6916 26.5576 21.93 26.5444L21.8882 25.7911L21.8464 25.0378C21.9788 25.0305 22.1093 25.0722 22.2129 25.1551L21.7416 25.7442ZM21.8882 25.7911V26.5455H23.6216V25.7911V25.0367H21.8882V25.7911ZM23.6216 25.7911L23.6425 26.5453C23.8671 26.539 24.0826 26.455 24.2521 26.3076L23.7571 25.7383L23.262 25.169C23.3562 25.0871 23.4759 25.0404 23.6007 25.037L23.6216 25.7911ZM23.7571 25.7383L24.2521 26.3076C24.4216 26.1602 24.5347 25.9585 24.5721 25.7369L23.8282 25.6115L23.0842 25.486C23.105 25.363 23.1678 25.2509 23.262 25.169L23.7571 25.7383ZM23.8282 25.6115L24.5751 25.7174L24.7368 24.5767L23.9898 24.4709L23.2429 24.365L23.0812 25.5056L23.8282 25.6115ZM23.9898 24.4709L24.2997 25.1587C24.5973 25.0247 24.8818 24.8631 25.1494 24.6762L24.7173 24.0577L24.2853 23.4392C24.0947 23.5724 23.892 23.6875 23.68 23.783L23.9898 24.4709ZM24.7173 24.0577L24.4301 24.7553L25.4989 25.1954L25.7861 24.4978L26.0734 23.8002L25.0046 23.3601L24.7173 24.0577ZM25.7861 24.4978V25.2522C25.8089 25.2522 26.4326 25.3054 26.7378 24.7387L26.0735 24.381L25.4093 24.0234C25.4415 23.9634 25.4909 23.9013 25.559 23.8493C25.6252 23.7986 25.6901 23.772 25.7373 23.7584C25.7814 23.7456 25.8125 23.7436 25.8169 23.7432C25.8194 23.7431 25.8174 23.7434 25.7861 23.7434V24.4978ZM26.0735 24.381L26.7208 24.7686L27.6189 23.2687L26.9716 22.8812L26.3244 22.4936L25.4262 23.9935L26.0735 24.381ZM26.9716 22.8812L27.6225 23.2627C27.7417 23.0594 27.782 22.8193 27.7358 22.5882L26.996 22.7362L26.2562 22.8841C26.2299 22.7524 26.2528 22.6156 26.3208 22.4996L26.9716 22.8812ZM26.996 22.7362L27.7358 22.5882C27.6896 22.3571 27.56 22.1511 27.3718 22.0092L26.9177 22.6117L26.4637 23.2142C26.3564 23.1334 26.2826 23.0159 26.2562 22.8841L26.996 22.7362ZM26.9177 22.6117L27.3854 22.0197L26.4873 21.3102L26.0196 21.9022L25.5519 22.4942L26.4501 23.2037L26.9177 22.6117ZM26.0196 21.9022L26.7726 21.9484C26.7835 21.7711 26.7835 21.5932 26.7726 21.4159L26.0196 21.4621L25.2666 21.5083C25.2737 21.6241 25.2737 21.7402 25.2666 21.856L26.0196 21.9022ZM26.0196 21.4621L26.771 21.5299C26.788 21.3414 26.788 21.1517 26.771 20.9632L26.0196 21.031L25.2682 21.0988C25.2771 21.1971 25.2771 21.296 25.2682 21.3943L26.0196 21.4621ZM26.0196 21.031L26.4873 21.623L27.3854 20.9135L26.9177 20.3215L26.4501 19.7295L25.5519 20.439L26.0196 21.031ZM26.9177 20.3215L27.4015 20.9004C27.5744 20.7559 27.6921 20.5563 27.7349 20.3352L26.9942 20.1919L26.2535 20.0485C26.2767 19.9288 26.3404 19.8208 26.434 19.7426L26.9177 20.3215ZM26.9942 20.1919L27.7349 20.3352C27.7777 20.1141 27.7429 19.885 27.6365 19.6865L26.9716 20.0431L26.3068 20.3997C26.2492 20.2922 26.2304 20.1682 26.2535 20.0485L26.9942 20.1919ZM26.9716 20.0431L27.6179 19.6538L26.7197 18.1629L26.0735 18.5522L25.4273 18.9415L26.3254 20.4324L26.9716 20.0431ZM26.0735 18.5522L26.7585 18.236C26.6268 17.9507 26.3927 17.7928 26.1683 17.7265C25.9949 17.6753 25.8238 17.681 25.7951 17.681V18.4354V19.1898C25.8265 19.1898 25.8283 19.1901 25.8255 19.1899C25.8211 19.1896 25.7879 19.1874 25.7407 19.1735C25.6904 19.1586 25.6189 19.1289 25.5467 19.0702C25.4722 19.0097 25.4204 18.9373 25.3885 18.8683L26.0735 18.5522ZM25.7951 18.4354L25.4951 17.7432L24.4174 18.2102L24.7173 18.9024L25.0173 19.5947L26.0951 19.1276L25.7951 18.4354ZM24.7173 18.9024L25.1539 18.2871C24.8774 18.091 24.5793 17.9274 24.2654 17.7996L23.9809 18.4983L23.6963 19.197C23.9028 19.2811 24.0989 19.3887 24.2808 19.5177L24.7173 18.9024ZM23.9809 18.4983L24.7278 18.3924L24.5662 17.2518L23.8192 17.3576L23.0722 17.4635L23.2339 18.6041L23.9809 18.4983ZM23.8192 17.3576L24.5708 17.2926C24.5507 17.0596 24.4462 16.8418 24.2769 16.6803L23.756 17.226L23.2351 17.7717C23.1386 17.6797 23.0791 17.5555 23.0676 17.4226L23.8192 17.3576ZM23.756 17.226L24.2769 16.6803C24.1077 16.5188 23.8854 16.4245 23.6516 16.4152L23.6216 17.169L23.5916 17.9229C23.4583 17.9176 23.3316 17.8638 23.2351 17.7717L23.756 17.226ZM23.6216 17.169V16.4146H21.987V17.169V17.9235H23.6216V17.169ZM15.9246 18.9024V18.148C13.9216 18.148 12.0708 18.546 10.6926 19.229C9.35921 19.8897 8.24557 20.9444 8.24557 22.3423H9H9.75443C9.75443 21.8271 10.1901 21.1619 11.3625 20.581C12.4901 20.0222 14.1016 19.6569 15.9246 19.6569V18.9024ZM9 22.3423H8.24557V24.0667H9H9.75443V22.3423H9ZM9 24.0667V24.8211H17.3796V24.0667V23.3123H9V24.0667ZM17.3796 24.0667L18.0615 23.7439C17.7312 23.0461 17.5598 22.2836 17.5598 21.5115H16.8054H16.051C16.051 22.5069 16.2718 23.4898 16.6977 24.3895L17.3796 24.0667ZM16.8054 21.5115H17.5598C17.5598 20.7394 17.7312 19.9769 18.0615 19.2791L17.3796 18.9563L16.6977 18.6336C16.2718 19.5332 16.051 20.5162 16.051 21.5115H16.8054ZM17.3796 18.9563L17.4525 18.2054C16.9391 18.1556 16.4231 18.1364 15.9074 18.1482L15.9246 18.9024L15.9418 19.6567C16.3973 19.6463 16.8531 19.6632 17.3066 19.7072L17.3796 18.9563ZM22.7504 20.1868L22.813 20.9386C22.8885 20.9323 22.9645 20.9418 23.0362 20.9663L23.281 20.2527L23.5257 19.5391C23.2566 19.4468 22.9713 19.4113 22.6878 19.4349L22.7504 20.1868ZM23.281 20.2527L23.0362 20.9663C23.1079 20.9909 23.1737 21.0301 23.2294 21.0814L23.7403 20.5263L24.2512 19.9711C24.0418 19.7785 23.7948 19.6314 23.5257 19.5391L23.281 20.2527ZM23.7403 20.5263L23.2294 21.0814C23.2852 21.1327 23.3297 21.1951 23.3602 21.2644L24.051 20.9613L24.7419 20.6582C24.6276 20.3977 24.4605 20.1637 24.2512 19.9711L23.7403 20.5263ZM24.051 20.9613L23.3602 21.2644C23.3906 21.3338 23.4063 21.4088 23.4063 21.4846H24.1608H24.9152C24.9152 21.2001 24.8562 20.9187 24.7419 20.6582L24.051 20.9613ZM24.1608 21.4846H23.4063C23.4063 21.5603 23.3906 21.6353 23.3602 21.7047L24.051 22.0078L24.7419 22.3109C24.8562 22.0504 24.9152 21.769 24.9152 21.4846H24.1608ZM24.051 22.0078L23.3602 21.7047C23.3297 21.7741 23.2852 21.8364 23.2294 21.8877L23.7403 22.4429L24.2512 22.998C24.4605 22.8054 24.6276 22.5714 24.7419 22.3109L24.051 22.0078ZM23.7403 22.4429L23.2294 21.8877C23.1737 21.939 23.1079 21.9782 23.0362 22.0028L23.281 22.7164L23.5257 23.43C23.7948 23.3378 24.0418 23.1906 24.2512 22.998L23.7403 22.4429ZM23.281 22.7164L23.0362 22.0028C22.9645 22.0274 22.8885 22.0368 22.813 22.0305L22.7504 22.7824L22.6878 23.5342C22.9713 23.5578 23.2566 23.5223 23.5257 23.43L23.281 22.7164ZM22.7504 22.7824L22.813 22.0305C22.6761 22.0191 22.5484 21.9567 22.4553 21.8555L21.9002 22.3664L21.345 22.8772C21.6944 23.2569 22.1737 23.4914 22.6878 23.5342L22.7504 22.7824ZM21.9002 22.3664L22.4553 21.8555C22.3623 21.7544 22.3106 21.622 22.3106 21.4846H21.5562H20.8017C20.8017 22.0005 20.9957 22.4976 21.345 22.8772L21.9002 22.3664ZM21.5562 21.4846H22.3106C22.3106 21.3471 22.3623 21.2147 22.4553 21.1136L21.9002 20.6027L21.345 20.0919C20.9957 20.4715 20.8017 20.9686 20.8017 21.4846H21.5562ZM21.9002 20.6027L22.4553 21.1136C22.5484 21.0125 22.6761 20.95 22.813 20.9386L22.7504 20.1868L22.6878 19.4349C22.1737 19.4777 21.6944 19.7122 21.345 20.0919L21.9002 20.6027Z" fill="white" mask="url(#path-2-inside-1_1_1328)"/>
</svg>
