<svg width="20" height="20" viewBox="0 0 20 20" fill="none" xmlns="http://www.w3.org/2000/svg">
<path d="M15 1.6665V3.33317M5 1.6665V3.33317" stroke="#C7C7CC" stroke-width="1.25" stroke-linecap="round" stroke-linejoin="round"/>
<path d="M2.5 6.6665H17.5" stroke="#C7C7CC" stroke-width="1.25" stroke-linecap="round" stroke-linejoin="round"/>
<path d="M2.08337 10.2027C2.08337 6.57161 2.08337 4.75607 3.12681 3.62803C4.17024 2.5 5.84962 2.5 9.20837 2.5H10.7917C14.1505 2.5 15.8298 2.5 16.8733 3.62803C17.9167 4.75607 17.9167 6.57161 17.9167 10.2027V10.6306C17.9167 14.2617 17.9167 16.0773 16.8733 17.2053C15.8298 18.3333 14.1505 18.3333 10.7917 18.3333H9.20837C5.84962 18.3333 4.17024 18.3333 3.12681 17.2053C2.08337 16.0773 2.08337 14.2617 2.08337 10.6306V10.2027Z" stroke="#C7C7CC" stroke-width="1.25" stroke-linecap="round" stroke-linejoin="round"/>
<path d="M7.82346 10.2762C8.60561 9.81923 9.28826 10.0034 9.69835 10.2967C9.8665 10.4169 9.95058 10.4771 10 10.4771C10.0495 10.4771 10.1336 10.4169 10.3017 10.2967C10.7118 10.0034 11.3945 9.81923 12.1766 10.2762C13.2031 10.8758 13.4354 12.8541 11.0677 14.5232C10.6167 14.8411 10.3912 15 10 15C9.60886 15 9.38338 14.8411 8.9324 14.5232C6.56471 12.8541 6.79698 10.8758 7.82346 10.2762Z" stroke="#C7C7CC" stroke-width="1.25" stroke-linecap="round"/>
</svg>
