<svg width="26" height="26" viewBox="0 0 26 26" fill="none" xmlns="http://www.w3.org/2000/svg">
<path d="M24.4522 11.403C24.4657 11.6112 24.4763 11.8209 24.4841 12.0316C24.5131 12.8185 24.5025 13.618 24.4522 14.3957C24.1266 19.4335 20.1699 23.4464 15.2026 23.7766C13.5079 23.8892 11.7386 23.889 10.0474 23.7766C9.46502 23.7378 8.83023 23.5989 8.28351 23.3737C7.67522 23.1232 7.37103 22.9979 7.21646 23.0169C7.06188 23.0359 6.8376 23.2013 6.38906 23.5321C5.59819 24.1153 4.60185 24.5341 3.12432 24.4982C2.37718 24.48 2.00362 24.4709 1.83638 24.1857C1.66914 23.9006 1.87742 23.5059 2.294 22.7165C2.87176 21.6216 3.23782 20.3682 2.68314 19.3639C1.72783 17.9294 0.916363 16.2305 0.797785 14.3957C0.734072 13.4099 0.734072 12.3889 0.797785 11.403C1.12336 6.36525 5.08008 2.3524 10.0474 2.02221C10.7 1.97883 10.7704 1.95219 11.4375 1.94226" stroke="white" stroke-opacity="0.7" stroke-width="1.5" stroke-linecap="round" stroke-linejoin="round"/>
<path d="M12.6194 13.2191H12.6301M17.3641 13.2191H17.3748M7.87476 13.2191H7.88541" stroke="white" stroke-opacity="0.7" stroke-width="2" stroke-linecap="round" stroke-linejoin="round"/>
<path d="M16.2053 1.20941C17.4791 0.449775 18.5908 0.755899 19.2587 1.24352C19.5325 1.44346 19.6694 1.54342 19.75 1.54342C19.8306 1.54342 19.9675 1.44346 20.2413 1.24352C20.9092 0.755899 22.0209 0.449775 23.2947 1.20941C24.9664 2.20635 25.3447 5.49529 21.4887 8.27005C20.7543 8.79855 20.3871 9.06281 19.75 9.06281C19.1129 9.06281 18.7457 8.79855 18.0113 8.27005C14.1553 5.49529 14.5336 2.20635 16.2053 1.20941Z" stroke="white" stroke-opacity="0.7" stroke-width="1.5" stroke-linecap="round"/>
</svg>
