<svg width="30" height="30" viewBox="0 0 30 30" fill="none" xmlns="http://www.w3.org/2000/svg">
<path d="M28.2222 14.6111C28.2222 7.0939 22.1283 1 14.6111 1C7.0939 1 1 7.0939 1 14.6111C1 22.1283 7.0939 28.2222 14.6111 28.2222C22.1283 28.2222 28.2222 22.1283 28.2222 14.6111Z" stroke="white" stroke-width="2"/>
<path d="M15.1575 9.57221L19.1319 8.24743C20.3381 7.84534 20.9413 7.6443 21.2597 7.96267C21.578 8.28104 21.377 8.88418 20.9749 10.0905L19.6501 14.0648C18.9649 16.1203 18.6223 17.1481 17.8853 17.8852C17.1482 18.6222 16.1205 18.9648 14.0649 19.65L10.0906 20.9748C8.8843 21.3769 8.28117 21.5779 7.96279 21.2595C7.64442 20.9412 7.84546 20.338 8.24755 19.1317L9.57233 15.1574C10.2575 13.1019 10.6001 12.0741 11.3372 11.337C12.0742 10.6 13.102 10.2574 15.1575 9.57221Z" stroke="white" stroke-width="2" stroke-linecap="round" stroke-linejoin="round"/>
<path d="M14.6111 14.6111L14.6024 14.6197" stroke="white" stroke-width="2" stroke-linecap="round" stroke-linejoin="round"/>
</svg>
