<svg width="36" height="36" viewBox="0 0 36 36" fill="none" xmlns="http://www.w3.org/2000/svg">
<path d="M36 18C36 8.05888 27.9411 0 18 0C8.05887 0 0 8.05888 0 18C0 27.9411 8.05887 36 18 36C27.9411 36 36 27.9411 36 18Z" fill="white" fill-opacity="0.1"/>
<path fill-rule="evenodd" clip-rule="evenodd" d="M25.3467 16.3285C25.0621 13.4082 23.3356 8.81641 17.9999 8.81641C12.6643 8.81641 10.9378 13.4082 10.6531 16.3285C9.65438 16.7076 8.99562 17.6664 9.00002 18.7346V20.0203C9.00002 21.4405 10.1513 22.5917 11.5714 22.5917C12.9916 22.5917 14.1428 21.4405 14.1428 20.0203V18.7346C14.1382 17.6895 13.5036 16.7503 12.5357 16.3561C12.7194 14.6663 13.6194 10.6531 17.9999 10.6531C22.3805 10.6531 23.2713 14.6663 23.4549 16.3561C22.489 16.7512 21.8576 17.691 21.857 18.7346V20.0203C21.861 21.0075 22.4279 21.906 23.3172 22.3346C22.9315 23.0601 21.9488 24.0427 19.5336 24.3366C19.0508 23.6035 18.1167 23.3145 17.3042 23.6468C16.4917 23.9792 16.028 24.84 16.1974 25.7013C16.3669 26.5626 17.1221 27.1835 17.9999 27.1835C18.6936 27.1796 19.3259 26.7853 19.6346 26.1641C23.5743 25.7141 24.8325 23.6846 25.2274 22.4907C26.2957 22.1446 27.0142 21.1432 26.9998 20.0203V18.7346C27.0042 17.6664 26.3454 16.7076 25.3467 16.3285ZM12.3061 20.0203C12.3061 20.4261 11.9772 20.755 11.5714 20.755C11.1657 20.755 10.8368 20.4261 10.8368 20.0203V18.7346C10.8368 18.4722 10.9768 18.2296 11.2041 18.0984C11.4314 17.9671 11.7115 17.9671 11.9388 18.0984C12.1661 18.2296 12.3061 18.4722 12.3061 18.7346V20.0203ZM23.6937 18.7346C23.6937 18.3289 24.0226 17.9999 24.4284 17.9999C24.8341 17.9999 25.1631 18.3289 25.1631 18.7346V20.0203C25.1631 20.4261 24.8341 20.755 24.4284 20.755C24.0226 20.755 23.6937 20.4261 23.6937 20.0203V18.7346Z" fill="white"/>
</svg>
