<svg width="26" height="26" viewBox="0 0 26 26" fill="none" xmlns="http://www.w3.org/2000/svg">
<path d="M12.875 24.75C6.31657 24.75 1 19.4334 1 12.875C1 6.31662 6.31662 1 12.875 1C18.1922 1 22.643 4.49469 24.1562 9.3125H21.1875" stroke="white" stroke-opacity="0.7" stroke-width="2" stroke-linecap="round" stroke-linejoin="round"/>
<path d="M12.875 8.125V12.875L15.25 15.25" stroke="white" stroke-opacity="0.7" stroke-width="2" stroke-linecap="round" stroke-linejoin="round"/>
<path d="M24.6966 14.0625C24.7319 13.6716 24.75 13.2755 24.75 12.875M16.4375 24.75C16.8431 24.6165 17.2394 24.4608 17.625 24.2842M23.3138 18.8125C23.5429 18.3713 23.7471 17.9139 23.9247 17.4424M20.2285 22.6472C20.6376 22.3087 21.0249 21.9425 21.3879 21.5515" stroke="white" stroke-opacity="0.7" stroke-width="2" stroke-linecap="round" stroke-linejoin="round"/>
</svg>
