<svg width="29" height="29" viewBox="0 0 29 29" fill="none" xmlns="http://www.w3.org/2000/svg">
<path d="M13.6562 2.875C19.6106 2.875 24.4375 7.70193 24.4375 13.6562C24.4375 19.6106 19.6106 24.4375 13.6562 24.4375C7.70193 24.4375 2.875 19.6106 2.875 13.6562C2.875 7.70193 7.70193 2.875 13.6562 2.875Z" stroke="white" stroke-opacity="0.7"/>
<path d="M25.2938 26.125C25.08 26.125 24.8663 26.0419 24.7119 25.8875L22.5032 23.6787C22.1825 23.3581 22.1825 22.8356 22.5032 22.5031C22.8238 22.1825 23.3463 22.1825 23.6788 22.5031L25.8875 24.7119C26.2082 25.0325 26.2082 25.555 25.8875 25.8875C25.7213 26.0419 25.5075 26.125 25.2938 26.125Z" fill="white"/>
<path d="M22.8633 22.8505C22.9704 22.7494 23.1407 22.7315 23.2754 22.8183L23.332 22.8632L25.5342 25.0654C25.6535 25.1848 25.6629 25.3881 25.5342 25.5302C25.4608 25.5933 25.3744 25.6249 25.2939 25.6249C25.2058 25.6249 25.1212 25.5898 25.0654 25.5341L22.8564 23.3251C22.7499 23.2184 22.7297 23.0436 22.8184 22.9062L22.8633 22.8505Z" stroke="white" stroke-opacity="0.7"/>
</svg>
