<svg width="29" height="29" viewBox="0 0 29 29" fill="none" xmlns="http://www.w3.org/2000/svg">
<path d="M22.9583 16.625L23.9358 17.525C24.1487 17.7341 24.2551 17.8387 24.2176 17.9276C24.1802 18.0164 24.0297 18.0164 23.7287 18.0164H20.0423C18.155 18.0164 16.625 19.5201 16.625 21.375C16.625 21.7931 16.7027 22.1933 16.8447 22.5625M19.7917 26.125L18.8142 25.225C18.6014 25.0159 18.4949 24.9113 18.5324 24.8224C18.5698 24.7336 18.7203 24.7336 19.0213 24.7336H22.7077C24.595 24.7336 26.125 23.2299 26.125 21.375C26.125 20.9569 26.0473 20.5567 25.9053 20.1875" stroke="white" stroke-opacity="0.7" stroke-width="1.5" stroke-linecap="round" stroke-linejoin="round"/>
<path d="M26.1147 13.6562C26.125 12.9429 26.125 12.7484 26.125 11.875C26.125 7.39666 26.125 5.15749 24.7338 3.76624C23.3425 2.375 21.1033 2.375 16.625 2.375H11.875C7.39666 2.375 5.15749 2.375 3.76624 3.76624C2.375 5.15749 2.375 7.39666 2.375 11.875C2.375 16.3533 2.375 18.5925 3.76624 19.9838C5.15749 21.375 7.39666 21.375 11.875 21.375H13.0625" stroke="white" stroke-opacity="0.7" stroke-width="1.5" stroke-linecap="round"/>
<path d="M21.9688 11.875H21.9581" stroke="white" stroke-opacity="0.7" stroke-width="2" stroke-linecap="round" stroke-linejoin="round"/>
<path d="M6.53125 11.875H6.52058" stroke="white" stroke-opacity="0.7" stroke-width="2" stroke-linecap="round" stroke-linejoin="round"/>
<path d="M17.2188 11.875C17.2188 13.5146 15.8896 14.8438 14.25 14.8438C12.6104 14.8438 11.2812 13.5146 11.2812 11.875C11.2812 10.2354 12.6104 8.90625 14.25 8.90625C15.8896 8.90625 17.2188 10.2354 17.2188 11.875Z" stroke="white" stroke-opacity="0.7" stroke-width="1.5"/>
</svg>
